<svg id="Слой_1" data-name="Слой 1" xmlns="http://www.w3.org/2000/svg" viewBox="0 0 258 484"><defs><style>.cls-2{fill:#d9d9d9;}</style></defs>
<path class="cls-2" d="M257.89,267c-2.77-2.17-2.22-5.81-3.79-8.51-1-1.71-1.53-3.69-4.32-5.63a94.51,94.51,0,0,1,3.8,9.23c.81,2.78,2.34,5.82-.61,9.33-1.68-4.89-1.15-9.66-3.78-13.39-.84-1.19-1-3.89-3.19-3-1.79.75-1.08,3-.64,4.51.87,3.05,1.84,6.07,1.48,9.3-.19,1.73,0,3.67-2.12,4.69-1.44-1.83-.64-3.88-.8-5.77s.14-4-.25-6c-.51-2.48-.59-6.31-4-5.87s-2.54,3.9-2.17,6.56c.41,3,1.33,6.25-2.2,9.1-.34-2.15-.68-3.84-.85-5.54-.72-7.23-.88-14.46-3.21-21.57-1.29-3.91-.73-8.54,1.11-12.7,2-4.52.56-8.44-1.13-13.11C225.52,203,216.3,189.35,208,175.19c-.47-.8-.79-1.88-2.76-1.78,10.56,18.31,23.23,35.41,26.1,56.8a167,167,0,0,0-16.82-28.91c-6.3-8.46-12.36-17.34-16.9-27-2.76-5.89-2.27-7.15,3.8-8.29,3.59-.67,3.23-2.78,2.31-5.15a80.56,80.56,0,0,1-4.9-21.32c-.15-1.43-.92-3.24,1.08-3.83,1.83-.54,2.69,1.15,3.31,2.44,2.5,5.19,2.54,11,3.68,16.49a16.4,16.4,0,0,0,.25,2.47c1,2.8-.42,7.45,2,8.24,3.08,1,3-3.87,4.79-5.83,1.55-1.66,2.06-1.55,3.71.08,5.53,5.46,8.34,12.48,10.88,19.38,5.56,15.12,10.32,30.54,15.38,45.84a13.3,13.3,0,0,0,5.47,7.48c5.36,3.38,6.8,8.54,6.77,14.66-2-.81-1.53-3-3-4.46-.65,6.88,1.93,12.24,4.81,17.52Z"/><path class="cls-2" d="M.1,260c2.87-5.28,5.45-10.64,4.84-17.1-1.8.87-.87,3.37-3.05,4,0-6,1.52-11,6.74-14.62,6.51-4.47,7.14-12.11,9.22-18.8,5-16.2,10-32.41,17.81-47.54.54-1,1.16-2,1.79-3,4.1-6.29,5-6.27,8.6.08.63,1.1.89,3,2.46,2.77,2-.28,1.35-2.33,1.57-3.7,1-6.23,2-12.48,3-18.71a15.24,15.24,0,0,1,1.07-3.83c.79-1.75,1.48-4.35,3.9-3.76s1.14,3.08,1,4.72a72.92,72.92,0,0,1-4.76,20.32C53,164,53.71,166,57.57,166c4.9,0,5,2.91,3.66,6.39a63.47,63.47,0,0,1-7.8,13.9c-4.79,6.57-8.57,13.77-13.74,20.15-5.69,7-9.27,15.47-13,23.8.71-10.59,5.18-20,10-29.22s10.55-18.26,14.91-28c-3,4.79-6.17,9.54-9.11,14.39A264.7,264.7,0,0,0,27.1,217.61c-2.71,6.13-2.79,11.09-.58,16.95,1.29,3.43,1.52,7.64.16,10.82-3.55,8.26-1.78,17.11-3.83,25.46-2.84-1.89-3.23-3-2.49-7.77.43-2.76,1.77-6.64-1.95-7.09-3.87-.47-3.87,3.92-4.16,6.71-.37,3.54-.09,7.14-.09,11.79-3.18-2.52-3.11-4.86-3-7.08A39.77,39.77,0,0,1,12,262c.42-2.35,2.52-5.91,0-6.74-2.81-.93-3.6,3.18-4.39,5.43-1.13,3.18-1.52,6.62-2.3,10.3-2.09-2.83-2.09-2.83,2.67-18.38-3.19,3.14-4.22,6.15-5.26,9.17-.64,1.85-.66,4-2.59,5.22Z"/><path class="cls-2" d="M136,.1c6.4,2.77,12,6.77,12.57,14.15.72,8.54.29,17.18.3,25.78a4.54,4.54,0,0,1-.73,2.34c-3.85,5.87-3.86,5.86-4.75,13.84-3-8.25-8.81-7.07-14.17-7.13S118,48.25,114.5,54.63a23,23,0,0,0-4.54-13c-2.92-4.11-.91-10.62-.72-16.08.05-1.32.68-2.7.44-3.93C107.53,10.79,112.34,4.07,122,.1Z"/><path class="cls-2" d="M62.05,483.91c-7.61-3.84-7.36-10.94-6.91-17.75,1.1-16.56,2.57-33.1,3.9-49.66.09-1.1,0-2.32,2.22-4,2.47,18.24,3,35.51-.29,53.4a11,11,0,0,0,2.88-6.75c2.12-16,2.36-32.07-1.75-47.57-1.73-6.55-1.12-9,5.05-10.22a2.58,2.58,0,0,0,1.29-.73c3.27-3.48,4.91-2.42,6,1.83.86,3.25,3.45,5.34,6.54,6.42,3.44,1.2,3.55,3,2.24,6.07-3.77,8.7-7.28,17.52-10.87,26.29A54.23,54.23,0,0,0,68.55,465c2.8-5.6,2.06-12,4.14-17.9,5.44,5.24,7.42,15.81,4,22.08-3,5.58-6.35,11-11.7,14.71Z"/><path class="cls-2" d="M192.94,483.91c-7.22-6.42-13.52-13.27-13-24a21.31,21.31,0,0,1,5-13.23c2.61,6.08,1.78,12.56,4.33,18.27a49.4,49.4,0,0,0-3.48-23.28q-5.29-13.47-11.05-26.76c-1.31-3-1.2-4.85,2.23-6.07,3.86-1.37,6.21-4.32,7.29-8.29.61-2.25,1.6-3.22,3.73-1.19a16.53,16.53,0,0,0,7.52,3.73c1.64.43,3.51,1.06,2.21,3.38-4,7.1-3.78,15.12-4.53,22.77a128.84,128.84,0,0,0,1,29.87,11.39,11.39,0,0,0,2.82,6.72,146,146,0,0,1,.39-52.41c2.18,2.25,2,5.05,2.2,7.5,1.3,16.73,2.43,33.47,3.3,50.22.28,5.37-1.46,10.2-6.9,12.75Z"/><path class="cls-2" d="M128.05,51.11c7.08-1,11.86,1.5,15.27,8.08,3,5.78,8,10,14,13.1,5,2.6,5.29,3.65,1.06,7-8.87,7-9,17-9.16,26.68a26.13,26.13,0,0,1-4.81,15.3c-5.27,7.54-8.84,16-12.7,24.29-.6,1.29-.91,3.25-2.6,3.36s-2.14-1.9-2.69-3.17a230.43,230.43,0,0,0-16-29.88c-2.92-4.69-1.62-10.42-1.92-15.62-.46-7.77-1.88-14.62-8.07-20-5-4.4-4.92-5.12,1-8.35A34.11,34.11,0,0,0,116.85,55C119.25,49.29,124.15,51.74,128.05,51.11Z"/><path class="cls-2" d="M177.19,255.25c-.33,2.12-.5,4.28-1,6.36-.59,2.41-.91,5.24-2.39,7-2.29,2.75-3.87-1.53-6.27-1.49-5.8.08-11.51-1.27-17.36-1.2-12.09.14-20.1-8.09-20.15-20.3,0-6.15.22-12.32-.06-18.46-.51-11.29,5.28-18.37,14.86-23a62.08,62.08,0,0,1,8.81-3.44c5.95-1.83,10.57.3,12,6.29A367.67,367.67,0,0,0,176,244.43,24.23,24.23,0,0,1,177.19,255.25Z"/><path class="cls-2" d="M128,236.05c-.66,5.66,1.2,12.47-2.07,19.06-3.39,6.83-8.75,10.44-16,10.73-6,.25-11.92.8-17.87,1.21-.66,0-1.49-.07-2,.28-6.38,4.81-6.87-.67-8-4.64A34.4,34.4,0,0,1,83,241.23,187.44,187.44,0,0,0,91.09,212c2.11-11.45,6.55-14,17.39-9.82,7.37,2.81,13.69,6.51,17.43,13.92,1.16,2.3,2.14,4.39,2.1,7C127.94,227,128,231,128,236.05Z"/><path class="cls-2" d="M101.65,193.77c-.75-12.51-9.09-21-13.85-31.15-2.37-5.06-2.87-10.25-3.6-15.41-1.27-9-4.59-17.57-4.66-27.41,7.18,5.52,13.59,2.67,20-.5,7.9-3.93,9.59-3.1,14,4.64s8.17,16,12,24.06c1.67,3.54,1.08,5.57-2.62,6.92-8.7,3.14-12.85,9.52-13,18.68C109.89,181,107.26,187.47,101.65,193.77Z"/><path class="cls-2" d="M178.27,119.68c.45,9.68-3.45,17.71-4.11,26.3-.85,11-5.25,20.69-11.41,29.81a36.19,36.19,0,0,0-6.46,17.75c-6.54-6.64-7.95-14.37-8.48-22.64-.49-7.62-4.78-13.08-12-15.68-4.42-1.58-5-3.68-3.06-7.87,3.81-8.12,7.58-16.23,12.05-24,3.93-6.87,6.08-7.8,13-4.37,1.34.67,2.64,1.44,4,2C167.21,123,172.63,124.63,178.27,119.68Z"/><path class="cls-2" d="M153.74,194.59c.4,3.39-1.12,4.81-3.31,5.62-8,3-15.76,6.26-19.66,14.83-1,2.11-2.89,1.64-3.77-.28-3.74-8.19-11.12-11.38-18.85-14.31-4.35-1.65-5.63-4.94-2.76-8.63,4.46-5.73,5.7-11.94,5.84-19,.18-8.91,8.69-17.31,17.19-18.16,7-.7,17.05,7.42,18,16.06.84,8.05,1.37,15.81,6.89,22.27A2.94,2.94,0,0,1,153.74,194.59Z"/><path class="cls-2" d="M48.79,162.71c-5.4-3.84-5.2-8.37-3.78-13.51,3-10.78,7.83-20.84,11.54-31.33,1-2.69,3.76-3.67,6-5,3.43-2,7-3.86,10.45-5.84,2.19-1.24,3.35-.58,2.87,1.8-.91,4.54.74,8.56,2.13,12.63,1.31,3.82,1.47,7.62-.54,11.13-4.06,7.12-6.88,14.77-10,22.33a15.66,15.66,0,0,1-8.22,9c-1,.46-2.17,1.22-3.25.27s-.44-2.2-.09-3.26a89.81,89.81,0,0,0,4.49-20.42c.21-2.35,1.76-5.34-1.94-6.14-3.51-.76-5.12,1.7-5.9,4.72A146,146,0,0,0,48.79,162.71Z"/><path class="cls-2" d="M209.34,163.42c-1-8.25-1.67-15.36-3.49-22.28a21.51,21.51,0,0,0-1.59-4.7,4.21,4.21,0,0,0-5.13-2.09c-2.41.63-2.18,2.65-1.93,4.49,1,7.25,2.13,14.47,4.6,21.41.46,1.29,1.58,2.94-.15,4.06-1.29.82-2.56-.24-3.72-.82-3.79-1.87-6.06-5.06-7.61-8.89-3-7.4-5.74-14.9-9.75-21.87a12.38,12.38,0,0,1-.94-10.16c1.43-4.58,3.45-9,2.46-14.09-.43-2.23.93-2.56,2.72-1.52,4.75,2.74,9.54,5.42,14.24,8.25a5.45,5.45,0,0,1,2.31,2.52c3.93,11.27,9,22.1,12.15,33.72C214.87,156.54,212.5,159.19,209.34,163.42Z"/><path class="cls-2" d="M151.17,105.69c-.88-8.85,1.89-15.32,5.71-21.49,1.51-2.43,2.8-2.85,4.78-.24,3.34,4.4,8.85,5.68,13.29,8.51,8.11,5.19,8.48,22.45.31,27.48-3,1.87-6.46,1.31-9.69.66-4.81-1-8.81-3.87-12.77-6.49C149.34,111.83,151.61,107.63,151.17,105.69Z"/><path class="cls-2" d="M106.79,106c-.47,2,1.92,6.25-2.2,8.62-6.27,3.62-12.4,8-20.35,6a6.78,6.78,0,0,1-2.51-1.53c-7.56-6.41-6.25-21.8,2-27.07C88.26,89.17,93.85,87.84,97.2,83c1.57-2.26,2.88-.35,3.76,1C105,90.3,107.75,97,106.79,106Z"/><path class="cls-2" d="M73.92,336.59c2.42-3.51,2.11-7.38,2.12-11.2,0-7.09-.43-14.08,3.18-20.85,4.45-8.34,5.27-17.77,5.79-27.1.4-7.23,8.86-12.33,15.21-9.05a2.85,2.85,0,0,1,1.22,4.26c-7,11.43-6,24.64-8.72,37C90.26,321.05,84.68,330.65,73.92,336.59Z"/><path class="cls-2" d="M183.89,336.65c-12.79-7.75-18.31-19.78-19.81-33.9C163,292.81,162,283,157.1,274c-2.24-4.16-1-5.76,3.68-6,6.87-.32,12.48,1.81,12.42,11.5a58,58,0,0,0,6.46,27.43c2,3.78,2.18,7.52,2.34,11.52C182.24,324.5,180.54,330.79,183.89,336.65Z"/><path class="cls-2" d="M73.91,390.93c2.06-12.4,5.23-25.57,12.18-37.56,1.9-3.27,3.49-3,5.21.18,3.07,5.63,6,11.11,2.56,17.82-1.69,3.31-1.13,7.26-.75,10.85.93,9-3.28,16.47-6.53,24.25-1,2.53-2.84,2.24-4.91,1.21C75.09,404.43,74.28,398.41,73.91,390.93Z"/><path class="cls-2" d="M184,392c-.32,6.06-.85,12-7.11,15.4-2.7,1.48-4.38,1.5-5.87-1.68-4-8.54-7.2-17.16-6.07-26.85a15.58,15.58,0,0,0-1.14-8.82c-3.46-6.91.65-12.21,3.69-17.62,1.68-3,3.28-1,4.32.87,4,7,7.35,14.24,8.88,22.11C181.74,380.92,184.42,386.14,184,392Z"/><path class="cls-2" d="M172.9,76.07c19.06,0,33.39,16.85,29.47,34.45-.71,3.17-1.5,4-4.41,2-2.58-1.78-5.52-3-8.26-4.58-3.85-2.16-8.18-3.77-7.53-9.71.23-2.08-1.72-3.9-3.64-5-3.42-2-6.83-4.09-10.34-6-3.33-1.77-7-3.83-6.21-7.93.86-4.28,5.24-3,8.43-3.2C171.23,76,172.07,76.07,172.9,76.07Z"/><path class="cls-2" d="M55.06,103.76C55,90,68.7,76.13,82.43,76.08a93,93,0,0,1,9.45.11c4.34.42,5.5,3.34,3.08,7a11.89,11.89,0,0,1-5,3.94,65.74,65.74,0,0,0-10.75,6.22c-2,1.46-3.84,3.35-3.5,5.7.59,4.08-1.87,5.73-4.65,7.34-3.87,2.24-7.88,4.25-11.72,6.56-2.38,1.43-3.07.67-3.54-1.76A34.28,34.28,0,0,1,55.06,103.76Z"/><path class="cls-2" d="M83.06,353.7a41.48,41.48,0,0,1-1.38,4.63,133,133,0,0,0-9.45,33.53c-.85,5.61-4.76,7.74-9.07,9.58-2.23,1-4,.07-3.71-2.83,1.27-12.09,2.31-24.21,9.82-34.58,3.92-5.42,2.64-11.85,2.74-17.95.06-2.95.29-5.68,3.3-7.25,1.11-.59,2.28-1.19,2.85.42C79.89,344.1,81.48,349,83.06,353.7Z"/><path class="cls-2" d="M175,353.43c1.49-4.42,3.06-9.15,4.66-13.88.5-1.47,1.42-1.59,2.72-.9a5.9,5.9,0,0,1,3.52,6.09c-.94,9.84,1.87,18.34,7,26.89,4.88,8.2,4.74,18.22,5.7,27.64a2.1,2.1,0,0,1-2.93,2.35c-3.88-1.44-8.37-2.81-9.25-7.5-2.43-13-5.68-25.65-10.76-37.84A18.14,18.14,0,0,1,175,353.43Z"/><path class="cls-2" d="M103.12,274.3c3.77,8.52,4.88,17.35,4.69,26.31-.08,3.8-3.39,6.41-5.27,9.38-6.56,10.36-8.32,21.5-7.56,33.4.24,3.61,0,7.25,0,12.3-3.87-4.77-7.24-7.75-7.15-13.45.13-9,.51-17.59,4.66-26,3.75-7.63,3.26-16.51,4.21-24.88C97.45,285.06,100.06,279.73,103.12,274.3Z"/><path class="cls-2" d="M154.86,274.3c3,5.41,5.67,10.71,6.37,17,1.25,11.15,3,22.07,7,32.89,3.7,9.93,4.73,21.29-5.25,30.35,0-3.2-.26-6.42,0-9.59,1.53-15.44-2.52-29.21-11.84-41.54a5.63,5.63,0,0,1-1.07-3.23C150.28,291.38,151.08,282.68,154.86,274.3Z"/><path class="cls-2" d="M110.26,303.73c-.9-9.19-1.75-19.43-4.85-29.38-2-6.35-1.1-7.39,5.66-7.26a14.43,14.43,0,0,0,9.57-3.46c1-.77,2.07-2.06,3.52-1.22,1.16.68.9,2.1.79,3.21-1.6,16-4.39,31.65-11.16,46.37-.33.71-.93,1.7-1.52,1.79-1.24.17-1.46-1.12-1.75-2C109.79,309.47,110,307.13,110.26,303.73Z"/><path class="cls-2" d="M133,266.29c.24-1.29-.67-3.13,1-4,1.4-.67,2.56.6,3.49,1.43,3.08,2.74,6.63,3.35,10.62,3.33,5.11,0,6.13,1.25,4.75,6a118.93,118.93,0,0,0-5,35.91,8.18,8.18,0,0,1-.37,2.45c-.28.91-.37,2.19-1.57,2.3s-1.52-1.1-1.86-2c-1.85-4.82-4-9.55-5.42-14.49A185,185,0,0,1,133,266.29Z"/><path class="cls-2" d="M97.75,361.22c-.83-1.27-1.31-1.66-1.33-2.07-1.06-17.84-1.86-35.64,9.19-51.31.57-.81,1-2,2.12-1.81s1,1.48,1.26,2.42c2.72,9.94.22,19.18-3.29,28.46C102.78,344.6,100.55,352.56,97.75,361.22Z"/><path class="cls-2" d="M159.92,360.78c-4.24-13.65-8.6-26.84-12.35-40.21-1.25-4.46,1.27-9.09,2-13.62.4-2.58,2.23-.07,2.83,1,4.69,8.25,9.27,16.58,9.46,26.41.15,7.64.08,15.29,0,22.93A3.43,3.43,0,0,1,159.92,360.78Z"/><path class="cls-2" d="M77.83,256.7c8,16.77,5.91,33.14-1.2,49.33C74.87,289.5,70.9,272.89,77.83,256.7Z"/><path class="cls-2" d="M179.65,256.14c2.74,4.09,4.36,7.84,4.35,12.4,0,12.57.14,25.13-2.59,39C174,289.92,172.36,273.55,179.65,256.14Z"/><path class="cls-2" d="M74,257.15c1-4.63,2-9.27,3-13.89q2.42-10.65,4.44-21.39c1.29-6.73,4.5-13.13,7.15-19.55.69-1.69,2.7-2.27,4.45-1.92-5.59,19.17-9.34,38.9-17.65,57.13Z"/><path class="cls-2" d="M183,258.35c-8.68-18.92-12.39-38.56-17.83-57.46,3.11-.32,3.64,0,4.9,2.76,7.59,16.79,9.29,35.11,13.73,52.73C183.85,256.63,183.56,257,183,258.35Z"/><path class="cls-2" d="M89.06,186c0-3.82,0-7.63,0-11.45,0-.74.28-1.86.8-2.15,1.17-.63,1.75.61,2.24,1.37,4,6.35,7.15,13.07,8.42,20.56.4,2.35-.59,3.43-2.86,3.61-2.94.23-6.6,1.68-8.6.44-2.21-1.38.44-5.14,0-7.91A27.76,27.76,0,0,1,89,186Z"/><path class="cls-2" d="M169.59,197.38s-.23,1.14-.38,1.13c-3.56-.25-7.23-.21-10.63-1.12-2.31-.62-1-3.09-.73-4.8,1.1-6.68,4.25-12.52,7.62-18.25.55-.94,1.14-2.4,2.48-2s.94,2,1,3C169.21,182.5,168.43,189.64,169.59,197.38Z"/><path class="cls-2" d="M86.31,328.61c.15,7.77,2.18,15.47-2.23,23-1.37-4.12-2.72-8.24-4.1-12.36C78,333.22,85.33,333,86.31,328.61Z"/><path class="cls-2" d="M173,352.51c-3.51-8.47-1.53-16.15-2.08-24.45C179.61,337.48,179.79,339.45,173,352.51Z"/></svg>