<?xml version="1.0" encoding="UTF-8" standalone="no"?>
<svg
   id="Слой_1"
   data-name="Слой 1"
   viewBox="0 0 265 476"
   version="1.1"
   sodipodi:docname="muscles_front1.svg"
   inkscape:version="1.2.2 (732a01da63, 2022-12-09)"
   xmlns:inkscape="http://www.inkscape.org/namespaces/inkscape"
   xmlns:sodipodi="http://sodipodi.sourceforge.net/DTD/sodipodi-0.dtd"
   xmlns="http://www.w3.org/2000/svg"
   xmlns:svg="http://www.w3.org/2000/svg">
  <sodipodi:namedview
     id="namedview254"
     pagecolor="#ffffff"
     bordercolor="#000000"
     borderopacity="0.25"
     inkscape:showpageshadow="2"
     inkscape:pageopacity="0.0"
     inkscape:pagecheckerboard="0"
     inkscape:deskcolor="#d1d1d1"
     showgrid="false"
     inkscape:zoom="2.3169811"
     inkscape:cx="31.938111"
     inkscape:cy="311.39658"
     inkscape:window-width="1350"
     inkscape:window-height="1040"
     inkscape:window-x="74"
     inkscape:window-y="0"
     inkscape:window-maximized="0"
     inkscape:current-layer="Слой_1" />
  <defs
     id="defs131">
    <inkscape:path-effect
       effect="spiro"
       id="path-effect660"
       is_visible="true"
       lpeversion="1" />
    <inkscape:path-effect
       effect="spiro"
       id="path-effect652"
       is_visible="true"
       lpeversion="1" />
    <style
       id="style129">.cls-1{fill:#fefefe;}.cls-2{fill:#d9d9d9;}</style>
  </defs>
  <path
     class="cls-2"
     d="M302,227c9.55,1.73,11.44,8.87,11.91,17a75.18,75.18,0,0,1-1.38,21.34A62.66,62.66,0,0,0,311,281.12c0,2,0,4.07-1.05,5.83-5.73,9.44-7.59,20.31-10.13,30.69-1.93,7.9-2.55,16.76,1.09,24.88.67,1.5.43,2.61-.82,3.47a4.29,4.29,0,0,1-5.14,0c-1.25-.86-1.38-1.95-.84-3.47,3.29-9.37,2.78-18.82.2-28.23-2.68-9.77-6.93-19.24-9.19-28.86-2.45-10.4-3.39-21.57-4.05-32.49a77,77,0,0,1,.05-9c.45-8.09,2.35-15.23,11.9-17Z"
     transform="translate(-165 -226.89)"
     id="path135" />
  <path
     id="path137"
     class="cls-2"
     d="M 404.94922 441.60875 A 1.81 1.81 0 0 0 403.41992 442.14977 C 399.89993 444.82976 395.75984 447.01008 396.83984 452.72008 C 397.28984 455.13008 396.70922 457.71078 396.94922 460.19078 C 397.57922 466.61077 396.68922 473.10938 397.94922 479.49937 C 398.13922 480.45937 397.99094 481.7993 399.21094 481.9193 C 400.92094 482.0793 400.77008 480.4893 400.83008 479.4193 C 400.96008 477.0793 400.89094 474.74929 400.96094 472.4193 C 400.99094 471.4293 401.07945 470.20008 402.18945 469.97008 C 403.29945 469.74008 404.02992 470.67094 404.41992 471.60094 C 404.99992 472.97094 405.40063 474.41945 405.89062 475.82945 C 407.02062 479.12945 408.09961 482.45055 409.34961 485.70055 C 409.73961 486.70055 410.28992 488.29945 411.66992 487.82945 C 413.48992 487.19945 412.51039 485.55953 412.15039 484.40953 C 411.25039 481.55953 409.98 478.80929 409.25 475.9193 C 408.8 474.1193 408.11922 471.39031 410.44922 470.71031 C 412.77922 470.03031 413.81086 472.51 414.38086 474.39 A 41.45 41.45 0 0 0 418.57031 483.96031 C 419.08031 484.81031 419.79969 485.70031 420.92969 484.96031 C 421.76969 484.40031 421.45086 483.4393 421.13086 482.6693 C 419.74086 479.2893 418.21945 475.96039 416.93945 472.54039 C 416.45945 471.27039 414.69985 469.72039 416.33984 468.54039 C 417.97984 467.36039 419.43039 469.03094 420.65039 470.10094 A 35.35 35.35 0 0 1 424.15039 473.63023 C 425.77039 475.46023 426.88086 477.94977 429.88086 477.89977 L 429.86914 475.95055 C 426.63914 472.22055 422.32023 469.00046 420.49023 464.62047 C 418.66024 460.24047 417.05984 460.44016 413.58984 461.80016 C 409.87985 463.24015 406.40078 465.6893 401.30078 465.4193 C 404.18078 461.6293 408.42078 462.22984 411.30078 460.22984 C 412.84078 459.16984 415.82078 459.22015 415.30078 456.55016 C 414.78078 453.88016 412.07922 454.09984 409.94922 453.97984 A 22.44 22.44 0 0 1 401.74023 452.12047 C 401.01024 451.77047 400.24023 451.0893 400.74023 450.1693 A 1.8 1.8 0 0 1 402.36914 449.52086 C 408.56913 452.94086 416.71079 451.15954 422.05078 457.15953 C 423.36078 458.61953 425.85031 461.84953 427.57031 459.90953 C 429.46031 457.73953 426.08094 455.71015 424.46094 454.05016 C 419.15094 448.60016 411.34046 446.89976 405.73047 441.89977 A 1.81 1.81 0 0 0 404.94922 441.60875 z M 189.98242 441.64586 C 187.95889 441.59473 186.68703 444.35102 184.76953 445.00914 C 182.77953 445.68914 181.04086 447.1107 179.13086 448.1107 C 174.94086 450.2607 171.01086 452.72039 168.13086 456.54039 C 167.37086 457.54039 165.97024 458.74914 167.24023 460.00914 C 168.51023 461.26914 169.84961 459.87031 170.59961 458.96031 C 176.1896 452.14032 184.91938 452.63992 192.10938 449.55992 C 192.90937 449.21992 193.89 449.18094 194.25 450.10094 C 194.78 451.29094 193.6893 451.93039 192.7793 452.29039 A 24.53 24.53 0 0 1 185.00977 453.94078 C 182.87977 454.04078 180.16016 453.81938 179.66016 456.49937 C 179.16016 459.17937 182.14016 459.11906 183.66016 460.17906 C 186.54015 462.18906 190.77953 461.57969 193.26953 464.81969 C 191.22953 466.37969 189.79008 465.10969 188.33008 464.56969 C 185.37008 463.45969 182.44976 462.24922 179.50977 461.08922 C 177.83977 460.42922 176.02945 460.03039 175.43945 462.29039 C 173.88945 468.31038 168.02914 470.96977 165.11914 475.89977 L 165.16992 477.8607 C 167.42992 477.8507 168.77094 476.45937 169.96094 474.74937 A 22.56 22.56 0 0 1 175.96094 468.82945 C 176.82094 468.25945 177.84024 467.79078 178.74023 468.44078 C 179.82023 469.21078 179.11023 470.23024 178.74023 471.13023 C 177.33024 474.50023 175.8993 477.85938 174.5293 481.24937 C 174.0493 482.41937 172.75992 483.99922 174.16992 484.83922 C 176.06992 485.98922 176.61992 483.76945 177.16992 482.57945 C 178.71992 479.27946 179.98024 475.84062 181.49023 472.53062 C 182.05023 471.30063 182.97938 470.09063 184.60938 470.53062 C 186.23937 470.97062 186.06055 472.56024 186.06055 473.88023 C 186.00055 476.44023 184.77055 478.67016 184.06055 481.05016 C 183.43055 483.23015 180.75969 486.47008 183.42969 487.47008 C 185.68969 488.31008 186.32016 484.12906 187.16016 481.92906 C 188.27016 479.01907 188.98047 475.92906 189.98047 472.92906 C 190.44047 471.51906 191.00055 469.67984 192.81055 469.97984 C 194.45055 470.25984 194.00055 472.12024 194.06055 473.38023 C 194.15055 475.20023 194.01039 477.04047 194.15039 478.87047 C 194.24039 480.09047 193.78906 482.01047 195.78906 481.87047 C 197.24906 481.76047 196.95031 480.07984 197.07031 478.97984 C 198.03031 470.07985 197.67 461.10077 198.25 452.19078 C 198.61 446.56079 194.98953 444.47078 191.51953 442.19078 C 190.95516 441.81953 190.44939 441.65766 189.98242 441.64586 z "
     transform="translate(-165 -226.89)" />
  <path
     id="path141"
     class="cls-2"
     d="M 289.14453 349.58531 C 281.58884 349.71986 275.45625 356.11368 276 364.55992 L 276 366.24937 C 276.13 371.42937 276.35985 371.57008 280.83984 368.97008 C 284.40984 366.88008 287.74032 364.25008 292.07031 363.97008 C 297.12031 363.63008 295.79922 359.82953 295.94922 356.90953 C 296.11922 353.56953 295.65929 350.38937 291.5293 349.74937 C 290.72305 349.62469 289.92615 349.57139 289.14453 349.58531 z M 305.56641 349.64781 C 305.01857 349.63855 304.46 349.6568 303.89062 349.70055 C 300.09063 350.01055 298.81984 352.62055 299.08984 355.95055 C 299.32984 359.04054 297.24071 363.48055 302.9707 363.95055 C 306.7607 364.22055 309.81016 366.32008 312.91016 368.22008 C 318.76015 371.79007 318.8 371.76929 319 365.1693 A 4.88 4.88 0 0 0 319 364.64977 C 319.45937 355.7904 313.78402 349.78679 305.56641 349.64781 z M 293.29492 367.05211 C 292.24483 367.06136 290.8214 367.58078 288.91016 368.55016 C 285.20016 370.42015 281.70922 372.65969 278.19922 374.81969 C 274.68922 376.97969 276.15078 380.39977 276.30078 383.39977 C 276.40078 385.39976 277.18938 387.19016 279.60938 387.80016 C 287.92937 389.89015 296 383.87984 296 375.47984 L 296 372.98961 C 295.94094 368.87493 295.29964 367.03444 293.29492 367.05211 z M 302.07812 367.1068 C 299.61377 367.04303 299 369.59782 299 375.46031 C 299 383.9303 300.00048 385.08047 308.98047 387.37047 C 316.60046 389.31047 319.53047 386.81054 318.98047 378.95055 C 318.84047 376.99055 318.30015 375.54039 316.41016 374.54039 C 313.78016 373.15039 311.35929 371.37976 308.7793 369.89977 C 305.70055 368.12602 303.55674 367.14506 302.07812 367.1068 z M 301.04297 388.70055 C 299.67844 388.76664 299.165 389.94821 299 391.8607 C 298.46 398.7907 301.14001 402.19024 309 404.13023 C 316.20999 405.93023 318 404.56991 318 396.80992 C 317.14 394.79992 319.79054 390.12914 314.81055 390.50914 A 28 28 0 0 1 302.71094 389.02086 C 302.04844 388.78086 301.49781 388.67852 301.04297 388.70055 z M 293.81445 388.72789 C 293.3557 388.72523 292.81469 388.83039 292.17969 389.04039 C 289.04969 390.08039 285.95961 391.37945 281.84961 390.57945 C 278.06961 389.12945 276.78977 391.29094 277.00977 395.35094 C 277.10977 397.16094 277.03938 398.98016 277.10938 400.80016 A 3.88 3.88 0 0 0 280.33008 404.64977 C 288.15007 406.72976 296.77953 399.58984 296.01953 391.72984 C 295.82453 389.71235 295.1907 388.73586 293.81445 388.72789 z M 297.44727 404.59703 C 293.51727 404.60703 289.58914 405.64406 285.61914 407.67906 C 283.02914 409.00906 278.72961 406.19969 277.34961 410.31969 C 276.27961 413.52968 277.83945 416.86969 278.68945 420.06969 A 20.61 20.61 0 0 0 280.33984 423.69078 A 111.12 111.12 0 0 1 290.82031 459.39 C 291.37031 463.93 293.43047 466.4 297.48047 466.39 C 301.53046 466.38 303.60961 463.89992 304.09961 459.30992 A 107.21 107.21 0 0 1 311.80078 430.02086 C 314.22078 424.21087 317.70078 418.7396 317.80078 412.73961 C 318.11078 409.54961 317.0007 408.05039 314.2207 408.04039 C 312.5607 407.99039 310.63906 408.37906 309.28906 407.67906 C 305.30907 405.60406 301.37726 404.58703 297.44727 404.59703 z "
     transform="translate(-165 -226.89)" />
  <path
     id="path143"
     class="cls-2"
     d="M 323.46094 303.30797 C 321.98663 303.2924 320.36508 303.51375 318.58008 303.99937 A 37.59 37.59 0 0 1 313.58008 303.98961 C 308.01008 303.22961 305.65976 306.03001 305.00977 311.14 A 31.42 31.42 0 0 1 302.42969 319.70055 C 298.35969 329.00054 302.26071 337.41923 305.7207 345.83922 C 305.9207 346.29922 306.75961 346.57922 307.34961 346.83922 C 319.1896 352.07921 329.67087 348.85944 336.88086 338.07945 C 341.19086 331.60946 343.55054 325.4407 337.81055 318.6107 A 12.57 12.57 0 0 1 335.81055 314.6107 C 333.4868 307.89133 329.84959 303.37544 323.46094 303.30797 z M 270.10742 303.77672 C 265.64041 303.76113 262.75 306.13336 261 310.77086 A 47.46 47.46 0 0 1 255.58008 321.44078 C 252.49008 325.68078 253.31024 329.55016 255.49023 333.55016 C 257.16023 336.61015 259.66953 339.22985 261.26953 342.22984 C 264.08953 347.51984 268.58946 348.50031 273.68945 348.96031 A 33.24 33.24 0 0 0 286.91992 347.05016 C 287.87992 346.74016 289.26914 346.60094 289.36914 345.60094 C 289.90914 340.16094 294.60094 336.15953 294.21094 330.15953 C 293.88094 324.88954 292.13023 320.22007 290.99023 315.22008 C 287.96024 302.00009 288.25038 304.24937 276.15039 303.99937 A 28 28 0 0 1 272.11914 303.92906 C 271.41539 303.82906 270.74557 303.77895 270.10742 303.77672 z "
     transform="translate(-165 -226.89)" />
  <path
     id="path147"
     class="cls-2"
     d="M 260.91211 455.13219 C 260.42872 455.14694 259.86586 455.5443 259.24023 456.4193 C 254.92024 462.41929 250.91992 468.3093 251.91992 476.4193 C 252.55992 481.49929 251.93031 486.73024 252.07031 491.88023 C 252.29031 498.53023 252.94906 505.05907 255.28906 511.42906 C 258.19906 519.26905 263.97922 525.64079 266.19922 533.94078 C 267.58922 529.65079 265.91946 525.0507 267.93945 521.1107 C 272.53945 511.91071 272.51945 502.11015 271.93945 492.30016 C 271.20945 479.86017 265.97961 468.51061 262.34961 456.78062 C 262.02336 455.72875 261.53361 455.11323 260.91211 455.13219 z M 333.99414 455.19273 C 333.42789 455.18023 332.95961 455.70953 332.59961 456.90953 C 328.96961 469.14952 324.28023 480.97954 322.74023 493.90953 C 321.06024 507.97952 329.08023 520.2197 328.74023 534.06969 C 330.88023 525.8397 336.90071 519.6396 339.4707 511.73961 A 56.68 56.68 0 0 0 342.08984 502.17906 C 343.35984 493.86907 342.30984 485.45062 343.08984 477.28062 C 343.86984 469.11063 340.70046 462.79984 335.98047 456.72984 C 335.22547 455.75984 334.56039 455.20523 333.99414 455.19273 z M 275.16992 503.07945 C 276.04992 509.99945 273.74906 516.20094 271.03906 522.35094 C 268.32907 528.50093 270.17008 534.80063 270.33008 541.03062 C 270.39008 543.54062 272.75086 544.55063 274.88086 545.03062 C 277.41086 545.58062 277.96016 543.31906 278.41016 541.67906 A 41.53 41.53 0 0 0 280.16992 532.44078 C 280.51992 522.42079 279.50992 512.54944 275.16992 503.07945 z M 319.23047 503.14 C 318.66047 505 318.09953 506.93039 317.51953 508.79039 A 61.48 61.48 0 0 0 316.2793 540.72008 C 316.6693 542.55008 317.12992 545.11937 319.66992 544.99937 C 322.01992 544.92938 324.58992 543.69937 324.66992 540.99937 C 324.83992 534.93938 326.62937 528.80015 324.10938 522.80016 C 321.44938 516.50016 318.99047 510.13999 319.23047 503.14 z "
     transform="translate(-165 -226.89)" />
  <path
     id="path151"
     class="cls-2"
     d="M 341.64648 563.70836 C 340.95674 563.62496 340.37773 564.22047 339.99023 565.08922 C 337.99024 569.54921 334.23984 570.7493 329.83984 570.9193 C 326.28985 571.0493 324.9707 573.01078 324.9707 576.44078 C 324.9807 580.62078 326.8807 584.14086 328.4707 587.77086 C 334.9507 602.65084 339.84 617.86931 339 634.4193 C 338.83 638.53929 339 642.67993 339 646.80992 L 340.03906 646.80992 C 340.84906 644.11992 341.74922 641.45008 342.44922 638.72008 C 344.67922 630.03009 346.8493 621.1596 346.5293 612.23961 C 346.0893 599.78962 345.26063 587.36983 346.89062 574.97984 C 347.46062 570.59985 345.31023 567.72906 342.99023 564.67906 C 342.51398 564.05281 342.06033 563.7584 341.64648 563.70836 z M 253.67773 563.85289 C 253.45773 563.85859 253.2132 563.92367 252.93945 564.05992 A 9.93 9.93 0 0 0 248.35938 570.30016 A 15 15 0 0 0 248.30078 575.72984 C 249.71078 586.82983 249.28094 597.9897 248.71094 609.06969 C 248.00094 622.24967 251.57 634.49017 256 646.80016 L 256 627.12047 C 256.01 623.97047 255.88953 620.82008 256.76953 617.72008 C 259.80953 607.04009 261.86922 596.10093 267.19922 586.10094 A 20.36 20.36 0 0 0 270.00977 576.63023 C 270.04977 572.95024 268.64937 570.99945 264.85938 570.82945 C 261.83938 570.73945 258.93945 570.21945 256.68945 567.82945 C 255.5782 566.6482 255.21773 563.81297 253.67773 563.85289 z "
     transform="translate(-165 -226.89)" />
  <path
     id="path159"
     class="cls-2"
     d="M 343.9043 655.84312 C 341.92992 655.85484 340.13476 656.40797 339.00977 658.62047 A 14.08 14.08 0 0 0 337.96094 663.96031 C 337.15094 673.5903 338.21906 683.14056 339.03906 692.70055 C 339.40906 697.00054 343.03969 700.22938 348.67969 700.99937 C 345.99969 696.11938 340.80008 692.85937 341.83008 686.49937 C 342.70008 681.17938 339.29071 675.53093 342.9707 669.60094 C 342.9707 674.93093 343.42937 679.63055 342.85938 684.20055 C 341.95938 691.35054 346.90954 694.97055 351.01953 699.20055 A 2.11 2.11 0 0 0 352.76953 699.80016 C 353.81953 699.46016 353.45922 698.57961 353.19922 697.73961 C 352.93922 696.89961 351.72031 696.17047 352.82031 695.12047 C 357.24031 698.62047 360.94024 698.54906 363.24023 694.92906 C 365.84023 690.81907 361.95031 688.7907 360.07031 686.6107 C 353.38032 678.92071 351.14086 669.37991 348.38086 660.05992 C 347.87086 658.31992 348.45992 656.26008 345.91992 655.97008 C 345.23992 655.89508 344.56242 655.83922 343.9043 655.84312 z M 250.71094 655.87828 C 250.34619 655.8766 249.97461 655.88828 249.59961 655.90953 C 246.34961 656.08953 246.83961 658.35969 246.59961 660.56969 A 22 22 0 0 1 244.7207 667.24937 C 241.16071 675.01937 239.2907 683.70087 232.4707 689.77086 C 230.7007 691.36086 230.03078 693.29086 232.30078 695.77086 C 236.12078 699.94086 239.13946 696.44094 242.43945 695.35094 C 243.08945 696.99094 240.06047 698.75914 242.23047 699.75914 C 243.89047 700.55914 244.79055 698.15953 246.06055 697.15953 C 251.27054 693.24954 252.62055 687.9596 252.06055 681.73961 C 251.73055 677.95961 252 674.11992 252 670.30992 L 253.26953 670.4193 C 253.80953 681.09929 255.38054 691.95079 246.81055 701.19078 C 251.60054 699.73078 255.46969 697.72984 255.92969 692.72984 C 256.79969 683.17985 257.9 673.61937 257 663.99937 A 25 25 0 0 0 256.33984 659.60094 C 255.49109 656.58219 253.26416 655.89004 250.71094 655.87828 z "
     transform="translate(-165 -226.89)" />
  <path
     id="path163"
     class="cls-2"
     d="M 339.76172 353.38609 C 339.14743 353.40117 338.50523 353.66102 337.88086 353.79039 C 332.15087 354.98039 327.73961 358.38914 323.59961 362.25914 C 322.80961 362.95914 322.17055 363.74969 322.81055 364.81969 A 2.27 2.27 0 0 0 325.44922 365.65953 A 18.4 18.4 0 0 1 335 365.65953 C 339.5 365.04953 339.16024 360.34 341.24023 357.64 A 2.77 2.77 0 0 0 341.11914 353.97008 C 340.69914 353.5107 340.2395 353.37437 339.76172 353.38609 z M 255.18359 353.46422 C 254.51104 353.44967 253.90547 353.66188 253.44922 354.49937 C 252.04922 357.05937 257.34008 365.77906 260.33008 365.42906 C 263.32008 365.07906 266.22 364.8093 269 365.6693 C 270.33 365.7393 271.56922 366.00008 272.19922 364.72008 A 1.74 1.74 0 0 0 271.58984 362.53062 C 267.22985 358.40063 262.51921 354.85976 256.44922 353.64977 C 256.01422 353.56352 255.58713 353.47295 255.18359 353.46422 z M 329.20117 368.05992 C 325.56378 368.1282 322.10937 371.12047 322 375.22984 C 322.89 376.28984 320.27032 380.08 324.32031 379.14 A 17.54 17.54 0 0 0 333.40039 374.21031 C 335.66039 371.73031 334.81047 369.99984 332.23047 368.72984 C 331.25266 368.25078 330.21964 368.0408 329.20117 368.05992 z M 265.81836 368.20836 C 265.65237 368.20645 265.48305 368.20781 265.31055 368.21031 C 262.86055 368.25031 260.51039 368.97985 260.40039 371.97984 C 260.32039 374.34984 268.37922 379.86914 271.44922 379.50914 C 274.12922 379.19914 272.47 376.86031 273 375.71031 C 273 370.45969 270.96414 368.26745 265.81836 368.20836 z M 259.33008 378.94078 C 263.00007 385.54077 269.18071 387.43047 273.2207 392.62047 C 274.1407 385.87048 270.33007 382.25078 259.33008 378.94078 z M 333.66016 379.17906 C 333.46922 379.19187 333.2568 379.2625 333.0293 379.39 C 329.7193 381.23 325.99 382.35907 323.25 385.17906 C 322.09 386.39906 321.08984 387.69961 321.08984 389.48961 A 3.16 3.16 0 0 0 321.56055 391.32945 C 322.07055 391.91945 322.7593 391.47039 323.2793 391.04039 C 326.72929 388.22039 330.20938 385.42062 333.60938 382.53062 A 6.23 6.23 0 0 0 334.7207 380.70055 C 334.6232 379.62805 334.23297 379.14063 333.66016 379.17906 z M 333.48633 388.14 C 332.94613 388.16203 332.22617 388.44664 331.2793 389.04039 C 327.5293 391.36039 324.80914 394.74094 321.86914 397.85094 C 319.99914 399.84094 321.14 403.29953 323.25 403.40953 C 326.9 403.58953 335.08 395.17945 335 391.32945 C 335 389.31508 334.67476 388.09153 333.48633 388.14 z M 261.94727 388.14586 C 260.20491 388.15128 260.17266 389.28375 260.05078 390.39 C 259.41078 396.87999 264.82071 398.91961 268.7207 401.98961 C 270.0407 403.02961 271.96992 404.65078 273.41992 402.44078 A 4.13 4.13 0 0 0 272.50977 397.00914 C 270.50977 395.07914 268.60976 392.94945 266.50977 391.07945 A 37 37 0 0 0 262.32031 388.15953 C 262.18844 388.14953 262.06342 388.1455 261.94727 388.14586 z M 334.14648 400.8607 C 333.31117 400.92445 332.73258 401.79766 332.08008 402.30016 C 329.71008 404.13015 327.38086 406.16938 324.38086 406.74937 C 321.64086 407.26937 320.86977 408.96977 321.00977 411.39977 C 321.31977 416.92976 319.29914 421.82008 317.11914 426.72008 C 313.07914 435.79007 309.76914 445.13024 308.61914 455.13023 C 310.54914 452.55024 312.11047 449.86914 314.23047 447.50914 C 321.02046 439.82915 327.11946 431.47992 335.68945 425.55992 C 337.15945 424.54992 337.3607 423.34055 337.2207 421.70055 C 336.7307 415.75055 336.3807 409.80992 335.9707 403.80992 C 335.9007 402.83992 336.08008 401.6707 335.08008 401.1107 C 334.73258 400.9082 334.42492 400.83945 334.14648 400.8607 z M 260.37305 400.86852 C 259.61053 400.92347 259.17305 401.76703 259.06055 403.55016 C 258.69055 409.52015 258.38031 415.50055 257.82031 421.45055 C 257.62031 423.57054 258.32969 424.67938 259.92969 425.99937 C 264.27968 429.57937 269.19985 432.89977 272.33984 437.39977 C 276.69984 443.63976 283.17039 448.1404 286.40039 455.29039 C 285.23039 444.9304 281.77031 435.37062 277.57031 426.03062 C 275.51031 421.45063 273.74047 416.81976 273.98047 411.64977 C 274.08047 409.60977 273.96008 407.51008 271.33008 406.97008 C 267.94008 406.28008 265.28023 404.27094 262.74023 402.10094 C 261.75586 401.26094 260.96612 400.82577 260.37305 400.86852 z "
     transform="translate(-165 -226.89)" />
  <path
     id="path167"
     class="cls-2"
     d="M 261.07031 532.55992 A 20.55 20.55 0 0 0 259.99023 540.85094 C 260.03023 542.19094 261.45086 543.88992 259.13086 544.55992 A 3.78 3.78 0 0 1 254.81055 542.78062 C 253.71055 541.12063 252.85953 539.28945 251.51953 536.82945 A 131.69 131.69 0 0 0 250 560.08922 C 252.49 556.88922 251.99953 553.51054 253.01953 550.70055 C 253.34953 549.81055 253.42008 548.55977 254.83008 548.89977 C 255.80008 549.09977 255.90039 550.08977 255.90039 550.89977 A 15.24 15.24 0 0 1 255.56055 554.35094 C 254.44055 559.03093 258.30071 566.17016 262.7207 567.55016 C 265.6507 568.46016 267.43969 567.71047 266.92969 564.37047 C 266.36969 560.77047 265.46 557.22 264.75 553.64 C 264.53 552.54 263.85992 551.09 265.41992 550.64 C 267.19992 550.14 267.65039 551.72063 267.90039 553.03062 C 268.64039 556.93062 270.34078 560.62938 270.05078 564.74937 C 269.84078 568.23937 271.76078 568.45937 274.05078 566.74937 C 278.45078 563.44938 279.34922 558.63937 279.19922 553.49937 C 279.13922 551.27938 278.51015 550.15937 275.91016 549.49937 C 271.04016 548.26938 266.75054 545.76937 264.81055 540.49937 C 263.81055 537.75938 262.33031 535.19992 261.07031 532.55992 z M 333.7793 532.6693 C 333.4193 533.4093 333.0693 534.14977 332.7793 534.89977 C 329.9893 542.06976 326.5796 548.61969 317.84961 549.81969 C 316.62961 550.00969 316.31023 550.81969 315.99023 551.81969 C 314.80024 555.59968 316.93946 563.76071 319.93945 566.1107 C 321.07945 567.0107 322.40945 568.21969 323.93945 567.56969 C 325.46945 566.91969 325.00945 565.22961 324.93945 563.98961 C 324.69945 560.04961 326.54039 556.54062 327.15039 552.78062 C 327.36039 551.60063 327.92938 550.33094 329.35938 550.60094 C 331.00937 550.91094 330.5293 552.34055 330.2793 553.45055 C 329.5693 556.70054 328.68062 559.90907 328.14062 563.17906 C 327.88063 564.67906 327.27063 566.73906 329.14062 567.67906 C 330.73062 568.46906 332.40914 567.64945 333.86914 566.82945 C 337.31914 564.88946 340.22031 558.10093 339.32031 554.10094 A 7.72 7.72 0 0 1 339.05078 552.10094 C 339.08078 550.82094 338.67016 549.02969 340.41016 548.81969 C 341.89015 548.63969 341.71938 550.4193 342.10938 551.4193 C 343.09937 554.02929 342.47016 557.26008 344.91016 559.72008 C 344.91016 555.63008 345.07937 551.90047 344.85938 548.37047 C 344.63938 544.84047 344.00922 541.24921 343.44922 536.83922 C 341.99922 539.39922 341.17 541.29938 340 542.99937 A 3.57 3.57 0 0 1 335.64062 544.47008 C 333.74063 543.75008 335 542.26992 335 541.05992 C 335.05 538.27992 335 535.49031 335 532.71031 L 333.7793 532.6693 z "
     transform="translate(-165 -226.89)" />
  <path
     id="path171"
     class="cls-2"
     d="M 339.46289 303.6732 C 338.27164 303.65195 337.16469 303.94453 336.42969 304.90953 C 334.95969 306.83953 337.11094 308.92922 337.96094 310.83922 C 338.90094 312.96922 339.68938 315.28016 341.10938 317.05016 C 346.64937 323.97015 348.95931 333.81953 358.7793 336.90953 C 359.9993 337.32953 360.8507 339.23945 362.2207 338.32945 C 363.5907 337.41945 362.77 335.56023 363 333.88023 C 362.66 331.48024 361.92055 328.83008 362.06055 326.22008 C 362.65055 312.96009 353.70999 307.22968 343 304.31969 C 341.93 304.02969 340.65414 303.69445 339.46289 303.6732 z M 254.46094 303.89391 C 245.349 304.06192 234.76875 312.27009 233.39062 320.97008 C 232.69063 325.39007 232.51984 329.88 232.08984 334.64 C 232.80984 335.64 230.87961 338.85914 233.84961 338.25914 C 236.81961 337.65914 240.35086 336.27039 242.13086 334.04039 C 248.63085 325.8604 254.69086 317.32085 258.63086 307.52086 C 259.54086 305.26086 258.80976 304.22008 256.25977 303.97008 C 255.66852 303.90758 255.0684 303.88271 254.46094 303.89391 z "
     transform="translate(-165 -226.89)" />
  <path
     id="path175"
     class="cls-2"
     d="M 218.06055 381.18297 C 217.43055 381.13047 216.70516 381.6693 215.91016 382.6693 C 210.26016 389.85928 204.28016 396.81932 203.91016 406.6693 A 13.38 13.38 0 0 1 202.33008 411.35094 C 198.95008 418.74092 195.44936 426.08939 192.10938 433.49937 C 191.46938 434.91937 190.51977 436.91039 192.75977 437.79039 C 194.74975 438.58039 195.9193 436.85047 196.5293 435.37047 A 44.57 44.57 0 0 1 201.14062 427.17906 C 205.97062 420.02908 210.61094 412.76006 215.21094 405.47008 C 218.46092 400.32008 220 394.53998 221 388.14 C 220.65 386.78 220.20062 384.99937 219.64062 383.24937 C 219.22564 381.87939 218.69055 381.23547 218.06055 381.18297 z M 377 381.21031 C 376.16 381.28031 375.87023 381.4893 375.24023 383.9193 C 372.66025 392.20928 376.50025 399.37916 380.24023 406.00914 C 383.98023 412.63912 388.45008 418.87064 392.58008 425.28062 C 394.64008 428.46062 397.20016 431.31969 398.41016 435.06969 C 398.89016 436.70969 400.27016 438.66031 402.41016 437.71031 C 404.55014 436.76031 403.39936 434.78922 402.85938 433.33922 A 64.5 64.5 0 0 0 399.98047 426.99937 C 396.77047 420.61939 392.43945 414.46031 391.43945 407.46031 C 390.00945 397.90033 385.63984 390.3607 379.58984 383.3607 C 378.83984 382.5007 378.27 381.43031 377 381.21031 z M 356.28516 383.46227 C 355.32938 383.36055 354.7968 383.96031 355.0293 385.46031 C 356.5893 395.65029 361.77977 404.02963 368.25977 411.73961 C 368.94975 412.55961 370.07039 413.67039 371.15039 412.79039 C 372.23039 411.91039 371.62039 410.60992 371.15039 409.55992 C 370.42039 407.83992 369.50055 406.24992 368.81055 404.55992 A 7.24 7.24 0 0 1 369.00977 397.55992 C 372.59975 416.41988 388.93096 426.34971 396.46094 441.81969 C 394.13094 434.04971 389.37039 427.69006 385.40039 420.97008 C 381.22039 413.8401 374.38055 407.79904 373.31055 399.42906 C 372.02055 389.32908 364.52912 387.08039 357.36914 383.79039 C 356.96914 383.60789 356.60375 383.49617 356.28516 383.46227 z M 238.23828 383.46812 C 236.35297 383.34042 234.15803 385.77047 232.0293 386.33922 A 9.18 9.18 0 0 0 230.64062 386.89977 C 226.33064 388.79975 223.11977 391.41002 222.50977 396.64 C 221.96977 401.48 219.5907 405.80025 216.9707 409.88023 C 212.14072 417.44023 207.20936 424.9008 202.35938 432.44078 C 200.52938 435.29078 198.71 438.16939 199 441.99937 C 202.43 436.79939 205.53055 431.3307 209.31055 426.3607 C 216.01053 417.66072 224.14055 409.91926 225.81055 396.9193 C 228.14053 402.28928 225.62062 405.40986 224.14062 408.72984 C 223.56064 410.03984 222.44 411.71064 224 412.78062 C 225.38 413.71062 226.38047 412.04975 227.23047 411.14977 C 232.45045 405.61977 235.53908 398.74076 238.53906 391.94078 C 239.56906 389.60078 241.23023 385.58086 239.49023 384.02086 C 239.09273 383.66461 238.67335 383.4976 238.23828 383.46812 z "
     transform="translate(-165 -226.89)" />
  <path
     id="path183"
     class="cls-2"
     d="M 330.68945 434.79039 C 326.19947 439.90039 321.69975 444.99977 317.25977 450.14977 A 2.75 2.75 0 0 0 316.60938 451.97008 C 316.79936 454.48008 318.23961 456.74 320.34961 457.39 C 322.45961 458.04 322.13922 455.15 322.94922 453.89 C 324.47922 451.53 325.77992 449.02922 327.16992 446.58922 C 329.17992 443.04922 331.09945 439.48039 330.68945 434.79039 z M 264.35938 434.81969 C 264.51936 443.57967 270.59039 449.27969 273.15039 456.56969 C 273.45039 457.42969 274.27953 458.11094 275.01953 457.35094 C 276.91953 455.40094 280.0207 453.28062 277.7207 450.28062 C 273.58072 444.89064 268.83936 439.94967 264.35938 434.81969 z M 264.10938 448.29039 L 263 448.99937 C 268.06999 460.59936 271.10024 472.78907 274.49023 484.92906 C 277.88023 497.06905 281.99078 509.04939 283.30078 521.99937 C 289.00078 507.69939 284.75031 494.55921 280.82031 481.33922 C 278.01032 472.01923 271.43984 464.53007 268.58984 455.22008 C 267.80984 452.69008 265.63937 450.59039 264.10938 448.29039 z M 331.36914 448.49937 A 19.77 19.77 0 0 0 325.63086 456.88023 C 321.71086 468.28022 314.93086 478.30009 311.63086 490.22008 C 308.57086 501.29007 308.95071 511.22009 311.2207 522.22008 C 316.3707 496.9001 323.60915 472.67935 331.36914 448.49937 z M 281.67188 457.00328 C 281.4577 456.98584 281.21797 457.00469 280.94922 457.06969 C 279.26922 457.46969 278.44975 459.1393 277.75977 460.6693 C 276.52977 463.39928 277.38961 465.7893 278.84961 468.1693 C 282.25961 473.72928 284.17922 479.89094 285.94922 486.10094 C 286.38922 487.63094 286.14922 489.42961 288.19922 490.73961 A 7.79 7.79 0 0 0 288.86914 489.53062 C 289.23914 488.43064 289.59914 487.33055 289.86914 486.20055 C 292.16914 476.62057 291.9699 467.55084 284.41992 460.02086 C 283.46617 459.06711 283.17112 457.12537 281.67188 457.00328 z M 313.18555 457.05211 C 311.4462 457.14745 311.10656 459.944 309.96094 461.13023 C 309.29094 461.83023 309.07016 462.95953 308.41016 463.65953 C 300.28016 472.16951 304.6507 481.35096 306.2207 490.35094 L 307.67969 490.47008 C 308.86969 486.73008 310.07977 482.99937 311.25977 479.24937 C 312.74975 474.48939 315.11031 470.12906 317.32031 465.67906 A 6.08 6.08 0 0 0 314.64062 457.47008 C 314.06314 457.15133 313.58694 457.03011 313.18555 457.05211 z "
     transform="translate(-165 -226.89)" />
  <path
     id="path191"
     class="cls-2"
     d="M 336.81055 430.10289 A 1.23 1.23 0 0 0 336.32031 430.14977 A 1.43 1.43 0 0 0 335.55078 431.23961 C 336.34078 437.7596 333.31071 444.54915 336.9707 450.75914 C 340.3807 456.53913 344.03008 462.18024 347.58008 467.88023 C 346.87008 456.87025 342.78914 446.89999 339.86914 436.64 C 339.27914 434.73 338.56914 432.87086 337.86914 431.02086 A 1.23 1.23 0 0 0 336.81055 430.10289 z M 258.17773 430.11461 C 257.07852 430.15604 256.78977 431.47594 256.50977 432.35094 C 254.2431 439.44426 252.03419 446.5524 249.88086 453.67906 C 248.51086 458.21906 246.93914 462.74071 247.36914 467.8607 C 250.16914 463.45071 252.85907 458.99976 255.78906 454.64977 C 259.18906 449.59977 260.71031 444.16929 259.57031 438.1693 A 15.74 15.74 0 0 1 259.28906 432.73961 C 259.43906 431.80961 259.95922 430.51906 258.69922 430.17906 C 258.50672 430.12781 258.33477 430.10869 258.17773 430.11461 z M 347.16016 474.37047 C 345.56016 474.52047 345.99023 476.15031 345.99023 477.21031 C 345.94023 482.21031 346.02945 487.21032 345.93945 492.21031 C 345.80945 499.51031 345.54961 506.77094 342.34961 513.60094 C 338.89961 520.95093 336.34094 528.53095 338.71094 537.60094 C 342.62093 529.51095 346.34063 521.99945 349.89062 514.32945 A 9 9 0 0 0 350.76953 509.48961 C 349.20953 499.88962 350.30969 490.24022 349.92969 480.63023 A 17.84 17.84 0 0 0 349.46094 476.69078 C 349.16094 475.57078 348.38016 474.26047 347.16016 474.37047 z M 247.56055 474.55016 C 245.68055 474.49016 245.19937 477.01953 245.10938 478.90953 C 245.04938 480.39953 245.05078 481.89977 245.05078 483.39977 C 244.92078 491.03976 245.0893 498.69993 244.5293 506.30992 C 244.2693 509.74992 244.2407 512.93938 245.7207 515.99937 C 249.0707 523.05937 252.61032 529.99938 256.07031 536.99937 C 256.89031 530.19938 257.70015 523.79976 254.16016 517.39977 A 37.62 37.62 0 0 1 249.82031 503.77086 C 248.77031 495.46087 249.36023 487.16999 248.99023 478.89 C 248.92023 477.34 250.07054 474.62016 247.56055 474.55016 z "
     transform="translate(-165 -226.89)" />
  <path
     id="path195"
     class="cls-2"
     d="M 349.58008 585.30016 C 348.54008 587.82015 349.0507 590.00071 348.9707 592.1107 C 348.4907 604.38069 350.14086 616.73931 347.88086 628.9193 C 346.64086 635.60929 344.73039 642.16063 343.15039 648.78062 C 342.82039 650.16062 341.89078 651.87039 344.05078 652.54039 A 3.23 3.23 0 0 0 348.23047 650.73961 A 16.14 16.14 0 0 0 349.39062 646.95055 C 350.21062 642.21055 350.74024 637.40031 351.74023 632.71031 C 355.28023 616.89033 356.00007 601.21014 349.58008 585.30016 z M 244.7207 585.69078 C 242.01071 597.82077 238.29914 609.75923 241.61914 622.58922 C 243.05914 628.17921 243.2707 634.07993 244.2207 639.80992 C 244.7807 643.24992 245.58094 646.66063 246.46094 650.03062 A 3.3 3.3 0 0 0 250.68945 652.56969 C 253.30945 651.98969 252.1493 650.05969 251.7793 648.56969 C 250.9293 645.18969 250.05078 641.81007 249.05078 638.47008 C 244.53079 623.16009 246.43078 607.45022 246.05078 591.88023 C 246.00078 589.83024 246.05078 587.72984 246.05078 585.72984 L 244.7207 585.69078 z "
     transform="translate(-165 -226.89)" />
  <path
     id="path219"
     class="cls-2"
     d="M 325.91992 591.6693 C 324.20992 602.85929 330.34985 626.79922 336.08984 632.33922 C 335.99984 617.54923 331.67992 604.40928 325.91992 591.6693 z M 269.01953 591.67906 C 263.51954 600.27905 258.06024 623.70923 259.74023 632.58922 C 267.00023 619.70923 271.65953 598.60906 269.01953 591.67906 z "
     transform="translate(-165 -226.89)" />
  <path
     id="path239"
     class="cls-2"
     d="M 340.93945 338.27086 C 336.60946 345.39085 332.22937 352.30937 322.60938 351.99937 C 321.77938 351.96938 320.7507 352.39977 320.9707 353.39977 A 7.25 7.25 0 0 0 322.56055 356.39977 C 323.37055 357.33976 324.47016 356.93 325.16016 356.14 C 328.44015 352.35 333.16055 351.58094 337.56055 350.35094 C 340.93054 349.45094 342.19 347.64093 342 344.35094 C 341.92 342.56094 342 340.75078 342 338.94078 L 340.93945 338.27086 z M 253.73047 338.72984 C 251.77047 347.38984 252.4204 348.61008 260.40039 351.22008 C 263.85039 352.36008 267.39969 353.28008 269.92969 356.22008 A 1.61 1.61 0 0 0 272.51953 356.39977 A 6.12 6.12 0 0 0 274.0293 353.39977 C 274.1493 352.14977 272.84961 351.96031 271.84961 351.96031 C 264.34962 351.95031 259.71922 347.70999 256.19922 341.64 C 255.59922 340.59 255.16047 339.17984 253.73047 338.72984 z "
     transform="translate(-165 -226.89)" />
  <path
     id="path243"
     class="cls-2"
     d="M 312.73828 291.91539 C 312.34647 291.88961 311.94453 292.04563 311.55078 292.49937 A 11.66 11.66 0 0 0 308.80078 298.73961 C 308.60078 300.23961 309.65969 300.83922 310.92969 300.83922 C 314.77968 300.86922 318.6693 301.41039 323.2793 300.29039 A 54.08 54.08 0 0 1 314.5 293.04039 C 314.0125 292.50914 313.39131 291.95836 312.73828 291.91539 z M 282.31445 291.91734 C 281.65029 291.94449 281.02305 292.47711 280.5293 293.02086 A 51 51 0 0 1 271.65039 300.29039 C 276.31039 301.40039 280.19985 300.86922 284.08984 300.83922 C 285.34984 300.83922 286.44 300.28086 286.25 298.77086 A 11.79 11.79 0 0 0 283.5293 292.52086 C 283.1243 292.06711 282.71295 291.90105 282.31445 291.91734 z "
     transform="translate(-165 -226.89)" />
  <path
     class="cls-1"
     d="M297.2,334.51V322.24h.5v12.41Z"
     transform="translate(-165 -226.89)"
     id="path251" />
  <path
     id="path1165"
     style="stroke:#000000;stroke-width:1.08305;stroke-miterlimit:10"
     class="st3"
     d="M 70.601562 114.29297 C 68.816158 114.72648 64.934273 116.16722 61.203125 120.42383 C 60.430231 121.39987 54.059437 128.76085 54.111328 139.07617 C 54.217088 145.18023 56.39298 149.08038 57.396484 150.54492 C 58.702476 148.39481 60.453673 145.04724 61.742188 140.7793 C 63.030704 136.51135 63.118806 133.89496 63.669922 130.87695 C 64.434345 126.86107 66.132831 121.1201 70.601562 114.29297 z M 194.70703 114.35156 C 199.17577 121.1787 200.8723 126.91966 201.63672 130.93555 C 202.18784 133.95355 202.27789 136.56994 203.56641 140.83789 C 204.85491 145.10584 206.60416 148.45341 207.91016 150.60352 C 208.91366 149.13898 211.08955 145.23882 211.19531 139.13477 C 211.2472 128.81945 204.87837 121.45846 204.10547 120.48242 C 200.37432 116.22582 196.49244 114.78507 194.70703 114.35156 z " />
  <path
     id="path1163"
     style="stroke:#000000;stroke-width:0.952757;stroke-miterlimit:10"
     d="M 83.429688 109.20312 C 83.429688 109.20312 69.452808 113.74993 65.894531 135.74805 L 62.429688 157.63867 C 62.429688 157.63867 72.300752 150.77373 78.332031 141.87305 C 84.421114 133.10227 83.429688 109.20313 83.429688 109.20312 z M 181.87695 109.26172 C 181.87695 109.26172 180.88553 133.16086 186.97461 141.93164 C 193.00588 150.83232 202.87891 157.69727 202.87891 157.69727 L 199.41211 135.80664 C 195.85383 113.80852 181.87695 109.26172 181.87695 109.26172 z " />
</svg>
