<svg width="21" height="25" viewBox="0 0 21 21" fill="none" xmlns="http://www.w3.org/2000/svg">
<g id="surface101133094">
<path style="fill-rule:nonzero;fill:rgb(100%,100%,100%);fill-opacity:1;stroke-width:4;stroke-linecap:butt;stroke-linejoin:round;stroke:rgb(100%,100%,100%);stroke-opacity:1;stroke-miterlimit:10;" d="M 131.52 21.68 C 132.6 22.72 133.2 24.12 133.12 25.6 L 133.12 56.32 C 133.16 58.16 132.16 59.88 130.6 60.8 C 129 61.72 127.04 61.72 125.44 60.8 C 123.84 59.88 122.88 58.16 122.88 56.32 L 122.88 25.6 C 122.8 23.16 124.52 21 126.88 20.48 C 127.08 20.4 127.32 20.36 127.52 20.32 C 129 20.16 130.44 20.68 131.52 21.68 Z M 55.04 50.4 C 56.6 50.28 58.16 50.88 59.2 52 L 80.96 73.76 C 82.48 75 83.2 76.96 82.72 78.88 C 82.32 80.8 80.8 82.32 78.88 82.72 C 76.96 83.2 75 82.48 73.76 80.96 L 52 59.2 C 50.56 57.88 50 55.88 50.56 54 C 51.08 52.12 52.64 50.72 54.56 50.4 C 54.72 50.4 54.88 50.4 55.04 50.4 Z M 205.12 53.28 C 206.08 55.28 205.6 57.68 204 59.2 L 182.24 80.96 C 181 82.48 179.04 83.2 177.12 82.72 C 175.2 82.32 173.68 80.8 173.28 78.88 C 172.84 76.96 173.52 75 175.04 73.76 L 196.8 52 C 197.6 51.12 198.68 50.56 199.84 50.4 C 202.04 50.12 204.16 51.28 205.12 53.28 Z M 128 76.8 C 128.08 76.8 128.24 76.8 128.32 76.8 C 128.84 76.8 129.4 76.92 129.92 77.12 C 130.08 77.12 130.24 77.28 130.4 77.28 C 157.4 78.6 179.2 100.64 179.2 128 C 179.2 156.16 156.16 179.2 128 179.2 C 99.84 179.2 76.8 156.16 76.8 128 C 76.8 100.56 98.76 78.44 125.92 77.28 C 125.96 77.2 126 77.16 126.08 77.12 C 126.4 77.04 126.72 76.96 127.04 76.96 C 127.2 76.88 127.36 76.84 127.52 76.8 C 127.68 76.8 127.84 76.8 128 76.8 Z M 24.64 122.88 C 24.8 122.88 24.96 122.88 25.12 122.88 C 25.28 122.88 56.16 122.88 56.32 122.88 C 58.16 122.88 59.88 123.84 60.8 125.44 C 61.76 127.04 61.76 128.96 60.8 130.6 C 59.88 132.16 58.16 133.16 56.32 133.12 L 25.6 133.12 C 22.8 133.52 20.16 131.52 19.76 128.72 C 19.36 125.92 21.36 123.28 24.16 122.88 C 24.32 122.88 24.48 122.88 24.64 122.88 Z M 198.72 122.88 C 198.88 122.88 199.04 122.88 199.2 122.88 C 199.36 122.88 230.24 122.88 230.4 122.88 C 232.24 122.88 233.96 123.84 234.88 125.44 C 235.8 127.04 235.8 128.96 234.88 130.6 C 233.96 132.16 232.24 133.16 230.4 133.12 L 199.68 133.12 C 196.88 133.52 194.24 131.52 193.84 128.72 C 193.44 125.92 195.44 123.28 198.24 122.88 C 198.4 122.88 198.56 122.88 198.72 122.88 Z M 77.28 173.44 C 79.36 173.4 81.32 174.64 82.12 176.56 C 82.96 178.52 82.48 180.76 80.96 182.24 L 59.2 204 C 57.96 205.52 56 206.2 54.08 205.76 C 52.16 205.32 50.68 203.84 50.24 201.92 C 49.8 200 50.48 198.04 52 196.8 L 73.76 175.04 C 74.56 174.16 75.64 173.6 76.8 173.44 C 76.96 173.44 77.12 173.44 77.28 173.44 Z M 178.08 173.44 C 178.24 173.44 178.4 173.44 178.56 173.44 C 179.96 173.44 181.28 174 182.24 175.04 L 204 196.8 C 205.52 198.04 206.24 200 205.76 201.92 C 205.36 203.84 203.84 205.32 201.92 205.76 C 200 206.2 198.04 205.52 196.8 204 L 175.04 182.24 C 173.64 180.92 173.08 178.92 173.6 177.04 C 174.16 175.16 175.68 173.76 177.6 173.44 C 177.76 173.44 177.92 173.44 178.08 173.44 Z M 131.52 195.76 C 132.6 196.8 133.2 198.2 133.12 199.68 L 133.12 230.4 C 133.16 232.24 132.16 233.96 130.6 234.88 C 129 235.84 127.04 235.84 125.44 234.88 C 123.84 233.96 122.88 232.24 122.88 230.4 L 122.88 199.68 C 122.8 197.24 124.52 195.12 126.88 194.56 C 127.08 194.48 127.32 194.44 127.52 194.4 C 129 194.28 130.44 194.76 131.52 195.76 Z M 131.52 195.76 " transform="matrix(0.0976562,0,0,0.0976562,0,0)"/>
<path style=" stroke:none;fill-rule:nonzero;fill:rgb(100%,100%,100%);fill-opacity:1;" d="M 12.453125 1.984375 C 12.429688 1.988281 12.410156 1.992188 12.390625 2 C 12.160156 2.054688 11.992188 2.261719 12 2.5 L 12 5.5 C 11.996094 5.679688 12.089844 5.847656 12.246094 5.941406 C 12.402344 6.03125 12.59375 6.03125 12.75 5.941406 C 12.90625 5.847656 13 5.679688 13 5.5 L 13 2.5 C 13.003906 2.355469 12.945312 2.214844 12.84375 2.117188 C 12.738281 2.019531 12.59375 1.972656 12.453125 1.984375 Z M 5.328125 4.921875 C 5.140625 4.957031 4.992188 5.089844 4.9375 5.273438 C 4.882812 5.457031 4.941406 5.652344 5.078125 5.78125 L 7.203125 7.90625 C 7.324219 8.054688 7.519531 8.125 7.707031 8.082031 C 7.890625 8.039062 8.039062 7.890625 8.082031 7.707031 C 8.125 7.519531 8.054688 7.324219 7.90625 7.203125 L 5.78125 5.078125 C 5.679688 4.96875 5.527344 4.910156 5.375 4.921875 C 5.359375 4.921875 5.34375 4.921875 5.328125 4.921875 Z M 19.515625 4.921875 C 19.402344 4.9375 19.296875 4.992188 19.21875 5.078125 L 17.09375 7.203125 C 16.945312 7.324219 16.878906 7.519531 16.917969 7.707031 C 16.960938 7.890625 17.109375 8.039062 17.292969 8.082031 C 17.480469 8.125 17.675781 8.054688 17.796875 7.90625 L 19.921875 5.78125 C 20.078125 5.632812 20.121094 5.398438 20.03125 5.207031 C 19.9375 5.007812 19.730469 4.894531 19.515625 4.921875 Z M 12.453125 7.5 C 12.4375 7.503906 12.421875 7.507812 12.40625 7.515625 C 12.375 7.519531 12.34375 7.523438 12.3125 7.53125 C 12.304688 7.539062 12.304688 7.539062 12.296875 7.546875 C 9.644531 7.660156 7.5 9.820312 7.5 12.5 C 7.5 15.253906 9.746094 17.5 12.5 17.5 C 15.253906 17.5 17.5 15.253906 17.5 12.5 C 17.5 9.832031 15.371094 7.679688 12.734375 7.546875 C 12.714844 7.546875 12.707031 7.53125 12.6875 7.53125 C 12.636719 7.511719 12.585938 7.503906 12.53125 7.5 C 12.523438 7.5 12.507812 7.5 12.5 7.5 C 12.484375 7.5 12.46875 7.5 12.453125 7.5 Z M 12.46875 8.5 C 12.476562 8.5 12.492188 8.5 12.5 8.5 C 12.515625 8.5 12.53125 8.5 12.546875 8.5 C 14.734375 8.523438 16.5 10.304688 16.5 12.5 C 16.5 14.710938 14.710938 16.5 12.5 16.5 C 10.289062 16.5 8.5 14.710938 8.5 12.5 C 8.5 10.300781 10.273438 8.519531 12.46875 8.5 Z M 2.359375 12 C 2.085938 12.039062 1.890625 12.292969 1.929688 12.570312 C 1.96875 12.847656 2.226562 13.039062 2.5 13 L 5.5 13 C 5.679688 13.003906 5.847656 12.910156 5.941406 12.753906 C 6.03125 12.597656 6.03125 12.40625 5.941406 12.25 C 5.847656 12.09375 5.679688 12 5.5 12 L 2.5 12 C 2.484375 12 2.46875 12 2.453125 12 C 2.4375 12 2.421875 12 2.40625 12 C 2.390625 12 2.375 12 2.359375 12 Z M 19.359375 12 C 19.085938 12.039062 18.890625 12.292969 18.929688 12.570312 C 18.96875 12.847656 19.226562 13.039062 19.5 13 L 22.5 13 C 22.679688 13.003906 22.847656 12.910156 22.941406 12.753906 C 23.03125 12.597656 23.03125 12.40625 22.941406 12.25 C 22.847656 12.09375 22.679688 12 22.5 12 L 19.5 12 C 19.484375 12 19.46875 12 19.453125 12 C 19.4375 12 19.421875 12 19.40625 12 C 19.390625 12 19.375 12 19.359375 12 Z M 7.5 16.9375 C 7.386719 16.953125 7.28125 17.007812 7.203125 17.09375 L 5.078125 19.21875 C 4.929688 19.339844 4.863281 19.535156 4.902344 19.722656 C 4.945312 19.90625 5.09375 20.054688 5.277344 20.097656 C 5.464844 20.140625 5.660156 20.070312 5.78125 19.921875 L 7.90625 17.796875 C 8.054688 17.652344 8.101562 17.433594 8.019531 17.242188 C 7.941406 17.054688 7.75 16.933594 7.546875 16.9375 C 7.53125 16.9375 7.515625 16.9375 7.5 16.9375 Z M 17.34375 16.9375 C 17.15625 16.972656 17.007812 17.105469 16.953125 17.289062 C 16.898438 17.472656 16.957031 17.667969 17.09375 17.796875 L 19.21875 19.921875 C 19.339844 20.070312 19.535156 20.140625 19.722656 20.097656 C 19.90625 20.054688 20.054688 19.90625 20.097656 19.722656 C 20.140625 19.535156 20.070312 19.339844 19.921875 19.21875 L 17.796875 17.09375 C 17.703125 16.996094 17.574219 16.941406 17.4375 16.9375 C 17.421875 16.9375 17.40625 16.9375 17.390625 16.9375 C 17.375 16.9375 17.359375 16.9375 17.34375 16.9375 Z M 12.453125 18.984375 C 12.429688 18.988281 12.410156 18.992188 12.390625 19 C 12.160156 19.054688 11.992188 19.261719 12 19.5 L 12 22.5 C 11.996094 22.679688 12.089844 22.847656 12.246094 22.941406 C 12.402344 23.03125 12.59375 23.03125 12.75 22.941406 C 12.90625 22.847656 13 22.679688 13 22.5 L 13 19.5 C 13.003906 19.355469 12.945312 19.214844 12.84375 19.117188 C 12.738281 19.019531 12.59375 18.972656 12.453125 18.984375 Z M 12.453125 18.984375 "/>
</g>
</svg>
